<?xml version="1.0" encoding="UTF-8"?>
<!DOCTYPE svg PUBLIC "-//W3C//DTD SVG 1.1//EN" "http://www.w3.org/Graphics/SVG/1.1/DTD/svg11.dtd">
<svg xmlns="http://www.w3.org/2000/svg" version="1.1" width="320px" height="320px" style="shape-rendering:geometricPrecision; text-rendering:geometricPrecision; image-rendering:optimizeQuality; fill-rule:evenodd; clip-rule:evenodd" xmlns:xlink="http://www.w3.org/1999/xlink">
<g><path style="opacity:0.623" fill="#003063" d="M 157.5,15.5 C 158.978,15.238 160.311,15.5713 161.5,16.5C 202.157,84.9851 242.157,153.818 281.5,223C 280.459,225.723 278.959,228.223 277,230.5C 255.266,254.311 233.766,278.311 212.5,302.5C 202.5,302.833 192.5,303.167 182.5,303.5C 172.012,303.657 161.679,303.157 151.5,302C 176.18,273.988 200.846,245.988 225.5,218C 195.133,165.434 164.633,112.934 134,60.5C 133.365,58.3646 133.699,56.3646 135,54.5C 142.755,41.5949 150.255,28.5949 157.5,15.5 Z"/></g>
<g><path style="opacity:1" fill="#003164" d="M 158.5,17.5 C 161.557,21.2576 164.39,25.2576 167,29.5C 204.455,94.2466 242.288,158.747 280.5,223C 257.128,248.703 234.128,274.703 211.5,301C 192.593,301.173 173.76,301.673 155,302.5C 154.833,302.167 154.667,301.833 154.5,301.5C 178.481,274.351 202.648,247.351 227,220.5C 227.167,219.667 227.333,218.833 227.5,218C 197.657,165.152 167.157,112.652 136,60.5C 136.086,57.2975 137.086,54.2975 139,51.5C 145.776,40.2749 152.276,28.9416 158.5,17.5 Z"/></g>
<g><path style="opacity:0.616" fill="#003063" d="M 123.5,73.5 C 124.978,73.238 126.311,73.5713 127.5,74.5C 135.199,87.0363 142.699,99.7029 150,112.5C 151.373,114.695 151.706,117.029 151,119.5C 131.448,152.103 112.281,184.937 93.5,218C 104.781,231.618 116.448,244.951 128.5,258C 142.829,258.5 157.163,258.667 171.5,258.5C 171.649,259.552 171.483,260.552 171,261.5C 158.5,275.333 146,289.167 133.5,303C 124.5,303.667 115.5,303.667 106.5,303C 83.6667,277.5 60.8333,252 38,226.5C 37.4945,222.486 38.4945,218.819 41,215.5C 69.1539,168.521 96.6539,121.187 123.5,73.5 Z"/></g>
<g><path style="opacity:1" fill="#003264" d="M 125.5,75.5 C 133.859,89.0413 141.859,102.875 149.5,117C 130.219,151.063 110.552,184.896 90.5,218.5C 102.314,232.149 114.314,245.649 126.5,259C 140.833,259.333 155.167,259.667 169.5,260C 156.833,274 144.167,288 131.5,302C 123.833,302.667 116.167,302.667 108.5,302C 85.1667,276 61.8333,250 38.5,224C 67.3855,174.39 96.3855,124.89 125.5,75.5 Z"/></g>
</svg>
