<?xml version="1.0" encoding="UTF-8"?>
<!DOCTYPE svg PUBLIC "-//W3C//DTD SVG 1.1//EN" "http://www.w3.org/Graphics/SVG/1.1/DTD/svg11.dtd">
<svg xmlns="http://www.w3.org/2000/svg" version="1.1" width="521px" height="272px" style="shape-rendering:geometricPrecision; text-rendering:geometricPrecision; image-rendering:optimizeQuality; fill-rule:evenodd; clip-rule:evenodd" xmlns:xlink="http://www.w3.org/1999/xlink">
<g><path style="opacity:0.987" fill="#67b0d4" d="M 236.5,-0.5 C 238.167,-0.5 239.833,-0.5 241.5,-0.5C 251.502,2.97354 254.002,9.6402 249,19.5C 243.944,30.0011 239.278,40.6678 235,51.5C 233.663,56.1279 234.83,59.7946 238.5,62.5C 249.541,67.1877 260.208,72.6877 270.5,79C 291.833,94 313.167,109 334.5,124C 345.687,131.096 357.354,137.429 369.5,143C 377.54,146.26 385.873,148.427 394.5,149.5C 403.676,149.757 410.009,145.757 413.5,137.5C 416.482,139.474 419.482,141.474 422.5,143.5C 423.833,142.5 423.833,141.5 422.5,140.5C 415.518,134.686 408.685,128.686 402,122.5C 400.413,123.846 400.58,125.179 402.5,126.5C 383.569,119.328 372.736,105.661 370,85.5C 369.333,75.5 369.333,65.5 370,55.5C 372.153,53.5561 374.653,53.0561 377.5,54C 392.997,60.9075 407.33,69.5742 420.5,80C 429.988,88.9884 436.322,99.8217 439.5,112.5C 451.009,95.2177 467.009,84.051 487.5,79C 496.612,76.5969 505.779,74.4303 515,72.5C 517.399,72.6132 519.232,73.6132 520.5,75.5C 520.5,77.5 520.5,79.5 520.5,81.5C 517.868,91.2306 514.702,100.897 511,110.5C 506.017,121.484 497.85,128.984 486.5,133C 474.954,136.636 463.287,139.803 451.5,142.5C 450.873,143.417 450.539,144.417 450.5,145.5C 444.52,149.315 439.686,154.315 436,160.5C 419.908,178.939 400.741,193.106 378.5,203C 346.559,214.442 316.225,211.108 287.5,193C 281.103,189.141 274.77,185.308 268.5,181.5C 273.581,179.082 277.081,175.082 279,169.5C 281.854,154.396 278.021,141.229 267.5,130C 265.595,128.579 263.595,127.412 261.5,126.5C 259.629,123.939 257.629,121.439 255.5,119C 254.4,118.568 253.733,119.068 253.5,120.5C 259.258,128.771 264.425,137.438 269,146.5C 271.066,158.073 268.233,168.239 260.5,177C 261.056,177.383 261.389,177.883 261.5,178.5C 260.833,178.5 260.5,178.833 260.5,179.5C 258.527,182.139 256.194,184.473 253.5,186.5C 252.272,187.306 251.272,188.306 250.5,189.5C 247.527,191.147 244.86,193.147 242.5,195.5C 241.508,195.328 240.842,195.662 240.5,196.5C 233.466,200.012 226.799,204.012 220.5,208.5C 219.508,208.328 218.842,208.662 218.5,209.5C 214.975,210.759 211.975,212.759 209.5,215.5C 199.093,210.916 189.093,211.583 179.5,217.5C 180,217.833 180.5,218.167 181,218.5C 185.265,216.476 189.765,215.476 194.5,215.5C 199.53,216.008 204.53,216.675 209.5,217.5C 215.301,219.231 220.301,222.231 224.5,226.5C 225.167,226.5 225.833,226.5 226.5,226.5C 225.631,228.717 225.298,231.05 225.5,233.5C 224.306,234.272 223.306,235.272 222.5,236.5C 215.581,241.082 209.247,246.415 203.5,252.5C 202.662,252.842 202.328,253.508 202.5,254.5C 198.702,257.796 195.036,261.296 191.5,265C 187.566,267.464 183.566,269.631 179.5,271.5C 175.833,271.5 172.167,271.5 168.5,271.5C 160.802,267.828 155.636,261.828 153,253.5C 150.02,245.769 148.52,237.769 148.5,229.5C 152.341,227.997 156.341,226.664 160.5,225.5C 161.492,225.672 162.158,225.338 162.5,224.5C 166.058,222.888 169.725,221.555 173.5,220.5C 175.173,219.657 176.34,218.324 177,216.5C 178.777,212.294 179.944,207.961 180.5,203.5C 180.593,194.174 182.259,185.174 185.5,176.5C 186.338,176.158 186.672,175.492 186.5,174.5C 191.344,164.663 197.344,155.496 204.5,147C 203.944,146.617 203.611,146.117 203.5,145.5C 204.791,145.737 205.791,145.404 206.5,144.5C 207.343,141.484 208.843,138.817 211,136.5C 220.593,129.142 227.426,120.142 231.5,109.5C 218.257,117.409 207.257,127.742 198.5,140.5C 197.311,141.429 195.978,141.762 194.5,141.5C 176.502,137.834 158.502,134.167 140.5,130.5C 141.694,138.942 143.361,147.275 145.5,155.5C 114.129,156.266 85.129,164.766 58.5,181C 43.1835,196.481 25.1835,207.648 4.5,214.5C 2.83333,213.167 1.16667,211.833 -0.5,210.5C -0.5,207.167 -0.5,203.833 -0.5,200.5C 0.704964,197.766 2.20496,195.099 4,192.5C 9.7079,187.123 15.7079,182.123 22,177.5C 20.9472,141.438 33.7805,111.271 60.5,87C 77.3917,71.8824 96.7251,60.8824 118.5,54C 128.311,51.0709 138.311,49.2376 148.5,48.5C 162.706,48.1749 177.04,48.6749 191.5,50C 180.901,46.1451 169.901,44.6451 158.5,45.5C 181.675,25.5717 207.675,10.2383 236.5,-0.5 Z"/></g>
<g><path style="opacity:1" fill="#7abad9" d="M 228.5,8.5 C 232.308,8.16315 235.974,8.66315 239.5,10C 241.396,11.8083 241.896,13.975 241,16.5C 233.884,26.6177 226.384,36.451 218.5,46C 214.289,47.5339 209.956,47.8673 205.5,47C 200.331,45.8329 195.164,44.6662 190,43.5C 185.042,42.8882 182.708,40.2216 183,35.5C 197.222,24.8097 212.389,15.8097 228.5,8.5 Z"/></g>
<g><path style="opacity:1" fill="#acd5e7" d="M 216.5,15.5 C 218.833,15.5 221.167,15.5 223.5,15.5C 223.509,17.3084 223.009,18.9751 222,20.5C 215.098,26.0342 207.932,31.2009 200.5,36C 197.009,37.5993 193.509,37.766 190,36.5C 189.28,34.8876 189.446,33.3876 190.5,32C 199.875,27.4267 208.542,21.9267 216.5,15.5 Z"/></g>
<g><path style="opacity:0.955" fill="#2585ad" d="M 158.5,45.5 C 169.901,44.6451 180.901,46.1451 191.5,50C 177.04,48.6749 162.706,48.1749 148.5,48.5C 151.623,46.8848 154.956,45.8848 158.5,45.5 Z"/></g>
<g><path style="opacity:1" fill="#7abad9" d="M 154.5,54.5 C 172.934,53.2209 190.934,55.3876 208.5,61C 217.445,64.0568 224.945,69.2234 231,76.5C 231.684,77.7839 231.517,78.9505 230.5,80C 226.167,80.6667 221.833,80.6667 217.5,80C 176.169,69.4992 137.169,75.1659 100.5,97C 81.4303,108.725 64.097,122.725 48.5,139C 46.3295,140.586 43.9962,141.92 41.5,143C 38.9009,143.769 36.4009,143.602 34,142.5C 33.2617,138.739 33.5951,135.072 35,131.5C 57.6575,93.7066 90.4908,69.3733 133.5,58.5C 140.618,57.0392 147.618,55.7058 154.5,54.5 Z"/></g>
<g><path style="opacity:1" fill="#2886ae" d="M 238.5,62.5 C 241.77,64.4741 245.103,66.4741 248.5,68.5C 247.277,69.6139 245.944,69.7805 244.5,69C 235.795,65.9317 227.128,62.7651 218.5,59.5C 217.614,58.675 217.281,57.675 217.5,56.5C 224.408,58.7849 231.408,60.7849 238.5,62.5 Z"/></g>
<g><path style="opacity:1" fill="#acd5e7" d="M 149.5,58.5 C 162.892,58.1944 176.225,58.8611 189.5,60.5C 189.5,61.5 189.5,62.5 189.5,63.5C 166.136,63.419 143.47,67.2523 121.5,75C 108.396,81.9684 95.2296,88.8018 82,95.5C 79.6807,94.5915 79.0141,92.9248 80,90.5C 90.3057,79.8768 102.472,72.0435 116.5,67C 127.487,63.5768 138.487,60.7435 149.5,58.5 Z"/></g>
<g><path style="opacity:1" fill="#7abad9" d="M 428.5,131.5 C 428.509,129.692 428.009,128.025 427,126.5C 421.573,119.069 415.407,112.236 408.5,106C 404.694,102.842 400.36,101.508 395.5,102C 393.203,103.263 392.37,105.097 393,107.5C 401.445,115.125 410.278,122.125 419.5,128.5C 410.894,124.195 402.561,119.362 394.5,114C 380.006,102.848 374.672,88.3485 378.5,70.5C 380.867,68.6048 383.534,68.1048 386.5,69C 399.331,82.8312 412.498,96.3312 426,109.5C 429.422,113.844 431.922,118.677 433.5,124C 433.142,127.5 431.475,130 428.5,131.5 Z"/></g>
<g><path style="opacity:1" fill="#acd5e7" d="M 380.5,77.5 C 385.316,78.0014 388.15,80.6681 389,85.5C 389.667,88.8333 389.667,92.1667 389,95.5C 387.33,97.6983 385.33,98.0317 383,96.5C 379.783,90.4252 378.949,84.0919 380.5,77.5 Z"/></g>
<g><path style="opacity:1" fill="#7abad9" d="M 474.5,89.5 C 467.835,95.9331 461.002,102.266 454,108.5C 452.888,110.39 452.054,112.39 451.5,114.5C 451.434,116.266 452.268,117.266 454,117.5C 465.038,110.473 475.372,102.473 485,93.5C 486.202,91.3225 486.702,88.9892 486.5,86.5C 484.833,86.5 483.167,86.5 481.5,86.5C 504.663,81.1802 509.163,88.1802 495,107.5C 483.65,121.595 469.15,126.762 451.5,123C 448.783,121.741 447.45,119.574 447.5,116.5C 447.847,113.472 449.014,110.806 451,108.5C 458.148,101.172 465.981,94.8385 474.5,89.5 Z"/></g>
<g><path style="opacity:1" fill="#acd5e7" d="M 481.5,86.5 C 483.167,86.5 484.833,86.5 486.5,86.5C 486.702,88.9892 486.202,91.3225 485,93.5C 475.372,102.473 465.038,110.473 454,117.5C 452.268,117.266 451.434,116.266 451.5,114.5C 452.054,112.39 452.888,110.39 454,108.5C 461.002,102.266 467.835,95.9331 474.5,89.5C 476.687,88.242 479.02,87.242 481.5,86.5 Z"/></g>
<g><path style="opacity:1" fill="#acd5e7" d="M 428.5,131.5 C 426.801,131.66 425.134,131.494 423.5,131C 422.529,129.519 421.196,128.685 419.5,128.5C 410.278,122.125 401.445,115.125 393,107.5C 392.37,105.097 393.203,103.263 395.5,102C 400.36,101.508 404.694,102.842 408.5,106C 415.407,112.236 421.573,119.069 427,126.5C 428.009,128.025 428.509,129.692 428.5,131.5 Z"/></g>
<g><path style="opacity:1" fill="#4fa5ce" d="M 206.5,144.5 C 202.407,143.492 198.407,142.492 194.5,141.5C 195.978,141.762 197.311,141.429 198.5,140.5C 207.257,127.742 218.257,117.409 231.5,109.5C 227.426,120.142 220.593,129.142 211,136.5C 208.843,138.817 207.343,141.484 206.5,144.5 Z"/></g>
<g><path style="opacity:1" fill="#2987ae" d="M 439.5,112.5 C 440.559,117.448 440.726,122.448 440,127.5C 439.692,128.308 439.192,128.975 438.5,129.5C 437.558,123.859 436.891,118.193 436.5,112.5C 437.5,112.5 438.5,112.5 439.5,112.5 Z"/></g>
<g><path style="opacity:1" fill="#2785ad" d="M 261.5,126.5 C 268.78,134.396 272.78,143.73 273.5,154.5C 273.07,164.024 269.404,172.024 262.5,178.5C 262.167,178.5 261.833,178.5 261.5,178.5C 261.389,177.883 261.056,177.383 260.5,177C 268.233,168.239 271.066,158.073 269,146.5C 264.425,137.438 259.258,128.771 253.5,120.5C 253.733,119.068 254.4,118.568 255.5,119C 257.629,121.439 259.629,123.939 261.5,126.5 Z"/></g>
<g><path style="opacity:0.938" fill="#2585ad" d="M 413.5,137.5 C 409.5,134.167 405.833,130.5 402.5,126.5C 400.58,125.179 400.413,123.846 402,122.5C 408.685,128.686 415.518,134.686 422.5,140.5C 423.833,141.5 423.833,142.5 422.5,143.5C 419.482,141.474 416.482,139.474 413.5,137.5 Z"/></g>
<g><path style="opacity:1" fill="#abd4e7" d="M 238.5,127.5 C 238.649,128.552 238.483,129.552 238,130.5C 230.978,136.524 224.311,142.857 218,149.5C 212.626,159.082 207.126,168.582 201.5,178C 200.552,178.483 199.552,178.649 198.5,178.5C 198.368,175.43 198.701,172.43 199.5,169.5C 204.748,152.514 214.748,139.014 229.5,129C 231.833,127.833 234.167,126.667 236.5,125.5C 237.522,125.855 238.189,126.522 238.5,127.5 Z"/></g>
<g><path style="opacity:1" fill="#7abad9" d="M 238.5,127.5 C 242.757,126.597 245.257,128.264 246,132.5C 248.773,146.836 245.44,159.502 236,170.5C 222.724,184.116 208.557,196.616 193.5,208C 185.925,209.921 183.425,207.088 186,199.5C 186.698,196.996 187.531,194.663 188.5,192.5C 188.015,197.159 189.848,198.492 194,196.5C 197.186,192.702 198.186,188.368 197,183.5C 194.924,182.243 193.09,182.576 191.5,184.5C 192.912,178.666 195.579,173.666 199.5,169.5C 198.701,172.43 198.368,175.43 198.5,178.5C 199.552,178.649 200.552,178.483 201.5,178C 207.126,168.582 212.626,159.082 218,149.5C 224.311,142.857 230.978,136.524 238,130.5C 238.483,129.552 238.649,128.552 238.5,127.5 Z"/></g>
<g><path style="opacity:1" fill="#4fa4cd" d="M 261.5,126.5 C 263.595,127.412 265.595,128.579 267.5,130C 278.021,141.229 281.854,154.396 279,169.5C 277.081,175.082 273.581,179.082 268.5,181.5C 267.193,180.847 265.86,180.18 264.5,179.5C 263.702,179.957 263.369,180.624 263.5,181.5C 262.596,180.791 262.263,179.791 262.5,178.5C 269.404,172.024 273.07,164.024 273.5,154.5C 272.78,143.73 268.78,134.396 261.5,126.5 Z"/></g>
<g><path style="opacity:1" fill="#515ac4" d="M 194.5,141.5 C 198.407,142.492 202.407,143.492 206.5,144.5C 205.791,145.404 204.791,145.737 203.5,145.5C 184.175,141.336 164.841,137.503 145.5,134C 159.035,147.702 172.701,161.202 186.5,174.5C 186.672,175.492 186.338,176.158 185.5,176.5C 171.535,163.035 157.701,149.369 144,135.5C 150.22,165.096 156.386,194.762 162.5,224.5C 162.158,225.338 161.492,225.672 160.5,225.5C 155.927,202.057 150.927,178.723 145.5,155.5C 143.361,147.275 141.694,138.942 140.5,130.5C 158.502,134.167 176.502,137.834 194.5,141.5 Z"/></g>
<g><path style="opacity:1" fill="#b5f8f5" d="M 203.5,145.5 C 203.611,146.117 203.944,146.617 204.5,147C 197.344,155.496 191.344,164.663 186.5,174.5C 172.701,161.202 159.035,147.702 145.5,134C 164.841,137.503 184.175,141.336 203.5,145.5 Z"/></g>
<g><path style="opacity:1" fill="#ecc9c0" d="M 185.5,176.5 C 182.259,185.174 180.593,194.174 180.5,203.5C 177.931,208.985 175.597,214.651 173.5,220.5C 169.725,221.555 166.058,222.888 162.5,224.5C 156.386,194.762 150.22,165.096 144,135.5C 157.701,149.369 171.535,163.035 185.5,176.5 Z"/></g>
<g><path style="opacity:1" fill="#2484ac" d="M 82.5,137.5 C 87.7654,136.571 92.2654,137.904 96,141.5C 96.4935,143.134 96.6602,144.801 96.5,146.5C 84.1183,141.689 77.6183,146.023 77,159.5C 75.9887,160.337 74.8221,160.67 73.5,160.5C 70.6697,150.501 73.6697,142.835 82.5,137.5 Z"/></g>
<g><path style="opacity:1" fill="#b8daea" d="M 450.5,145.5 C 433.309,207.187 393.309,244.687 330.5,258C 311.89,260.647 293.224,261.147 274.5,259.5C 273.662,259.158 273.328,258.492 273.5,257.5C 280.841,257.666 288.174,257.5 295.5,257C 307.631,255.875 312.464,249.375 310,237.5C 307.411,231.984 304.078,226.984 300,222.5C 288.594,211.256 276.761,200.589 264.5,190.5C 263.701,187.57 263.368,184.57 263.5,181.5C 263.369,180.624 263.702,179.957 264.5,179.5C 265.86,180.18 267.193,180.847 268.5,181.5C 274.77,185.308 281.103,189.141 287.5,193C 316.225,211.108 346.559,214.442 378.5,203C 400.741,193.106 419.908,178.939 436,160.5C 439.686,154.315 444.52,149.315 450.5,145.5 Z"/></g>
<g><path style="opacity:0.992" fill="#d0e6f0" d="M 145.5,155.5 C 150.927,178.723 155.927,202.057 160.5,225.5C 156.341,226.664 152.341,227.997 148.5,229.5C 122.689,224.455 96.6895,220.288 70.5,217C 55.1344,217.003 39.8011,217.836 24.5,219.5C 16.9989,220.602 10.3322,218.936 4.5,214.5C 25.1835,207.648 43.1835,196.481 58.5,181C 85.129,164.766 114.129,156.266 145.5,155.5 Z"/></g>
<g><path style="opacity:1" fill="#c5b0f4" d="M 260.5,179.5 C 264.519,206.13 268.019,232.796 271,259.5C 261.667,250.167 252.333,240.833 243,231.5C 245.698,216.372 249.198,201.372 253.5,186.5C 256.194,184.473 258.527,182.139 260.5,179.5 Z"/></g>
<g><path style="opacity:1" fill="#aad4e6" d="M 188.5,192.5 C 188.94,189.62 189.94,186.954 191.5,184.5C 193.09,182.576 194.924,182.243 197,183.5C 198.186,188.368 197.186,192.702 194,196.5C 189.848,198.492 188.015,197.159 188.5,192.5 Z"/></g>
<g><path style="opacity:1" fill="#cae0ef" d="M 250.5,189.5 C 247.004,202.815 243.504,216.148 240,229.5C 235.21,230.929 230.376,232.263 225.5,233.5C 225.298,231.05 225.631,228.717 226.5,226.5C 229.747,226.585 232.581,225.585 235,223.5C 237.564,214.18 240.064,204.847 242.5,195.5C 244.86,193.147 247.527,191.147 250.5,189.5 Z"/></g>
<g><path style="opacity:1" fill="#d0e6f0" d="M 264.5,190.5 C 276.761,200.589 288.594,211.256 300,222.5C 304.078,226.984 307.411,231.984 310,237.5C 312.464,249.375 307.631,255.875 295.5,257C 288.174,257.5 280.841,257.666 273.5,257.5C 270.426,235.165 267.426,212.831 264.5,190.5 Z"/></g>
<g><path style="opacity:1" fill="#4550c5" d="M 242.5,195.5 C 240.064,204.847 237.564,214.18 235,223.5C 232.581,225.585 229.747,226.585 226.5,226.5C 225.833,226.5 225.167,226.5 224.5,226.5C 226.48,224.895 228.813,223.728 231.5,223C 226.963,218.631 222.63,214.131 218.5,209.5C 218.842,208.662 219.508,208.328 220.5,208.5C 224.463,212.964 228.63,217.298 233,221.5C 235.657,213.205 238.157,204.872 240.5,196.5C 240.842,195.662 241.508,195.328 242.5,195.5 Z"/></g>
<g><path style="opacity:1" fill="#c5b1f3" d="M 240.5,196.5 C 238.157,204.872 235.657,213.205 233,221.5C 228.63,217.298 224.463,212.964 220.5,208.5C 226.799,204.012 233.466,200.012 240.5,196.5 Z"/></g>
<g><path style="opacity:1" fill="#4b53c4" d="M 261.5,178.5 C 261.833,178.5 262.167,178.5 262.5,178.5C 262.263,179.791 262.596,180.791 263.5,181.5C 263.368,184.57 263.701,187.57 264.5,190.5C 267.426,212.831 270.426,235.165 273.5,257.5C 273.328,258.492 273.662,259.158 274.5,259.5C 274.5,261.167 274.5,262.833 274.5,264.5C 250.442,261.493 226.442,258.16 202.5,254.5C 202.328,253.508 202.662,252.842 203.5,252.5C 225.467,255.885 247.467,258.718 269.5,261C 260.167,251.667 250.833,242.333 241.5,233C 234.99,233.042 228.657,234.209 222.5,236.5C 223.306,235.272 224.306,234.272 225.5,233.5C 230.376,232.263 235.21,230.929 240,229.5C 243.504,216.148 247.004,202.815 250.5,189.5C 251.272,188.306 252.272,187.306 253.5,186.5C 249.198,201.372 245.698,216.372 243,231.5C 252.333,240.833 261.667,250.167 271,259.5C 268.019,232.796 264.519,206.13 260.5,179.5C 260.5,178.833 260.833,178.5 261.5,178.5 Z"/></g>
<g><path style="opacity:1" fill="#85a7ee" d="M 218.5,209.5 C 222.63,214.131 226.963,218.631 231.5,223C 228.813,223.728 226.48,224.895 224.5,226.5C 220.301,222.231 215.301,219.231 209.5,217.5C 209.5,216.833 209.5,216.167 209.5,215.5C 211.975,212.759 214.975,210.759 218.5,209.5 Z"/></g>
<g><path style="opacity:1" fill="#4852c3" d="M 180.5,203.5 C 179.944,207.961 178.777,212.294 177,216.5C 176.34,218.324 175.173,219.657 173.5,220.5C 175.597,214.651 177.931,208.985 180.5,203.5 Z"/></g>
<g><path style="opacity:1" fill="#2987ae" d="M 209.5,215.5 C 209.5,216.167 209.5,216.833 209.5,217.5C 204.53,216.675 199.53,216.008 194.5,215.5C 189.765,215.476 185.265,216.476 181,218.5C 180.5,218.167 180,217.833 179.5,217.5C 189.093,211.583 199.093,210.916 209.5,215.5 Z"/></g>
<g><path style="opacity:1" fill="#acd4e7" d="M 197.5,225.5 C 200.187,225.336 202.854,225.503 205.5,226C 206.973,226.71 207.64,227.876 207.5,229.5C 196.295,229.734 185.962,232.901 176.5,239C 174.866,239.494 173.199,239.66 171.5,239.5C 171.351,238.448 171.517,237.448 172,236.5C 175.449,232.877 179.283,229.877 183.5,227.5C 185.157,228.575 186.991,229.242 189,229.5C 191.903,228.298 194.736,226.965 197.5,225.5 Z"/></g>
<g><path style="opacity:1" fill="#7cbbd9" d="M 183.5,227.5 C 179.283,229.877 175.449,232.877 172,236.5C 171.517,237.448 171.351,238.448 171.5,239.5C 173.199,239.66 174.866,239.494 176.5,239C 185.962,232.901 196.295,229.734 207.5,229.5C 207.64,227.876 206.973,226.71 205.5,226C 202.854,225.503 200.187,225.336 197.5,225.5C 198.312,224.007 199.645,223.34 201.5,223.5C 206.757,223.614 210.424,225.947 212.5,230.5C 212.167,231.5 211.833,232.5 211.5,233.5C 204.313,239.855 196.98,246.021 189.5,252C 185.796,254.852 181.796,257.185 177.5,259C 167.724,260.526 160.891,256.693 157,247.5C 155.843,241.649 158.009,237.482 163.5,235C 169.869,231.646 176.536,229.146 183.5,227.5 Z"/></g>
<g><path style="opacity:1" fill="#eac8c0" d="M 203.5,252.5 C 209.247,246.415 215.581,241.082 222.5,236.5C 228.657,234.209 234.99,233.042 241.5,233C 250.833,242.333 260.167,251.667 269.5,261C 247.467,258.718 225.467,255.885 203.5,252.5 Z"/></g>
</svg>
