<?xml version="1.0" encoding="UTF-8"?>
<!DOCTYPE svg PUBLIC "-//W3C//DTD SVG 1.1//EN" "http://www.w3.org/Graphics/SVG/1.1/DTD/svg11.dtd">
<svg xmlns="http://www.w3.org/2000/svg" version="1.1" width="256px" height="256px" style="shape-rendering:geometricPrecision; text-rendering:geometricPrecision; image-rendering:optimizeQuality; fill-rule:evenodd; clip-rule:evenodd" xmlns:xlink="http://www.w3.org/1999/xlink">
<g><path style="opacity:0.871" fill="#edf3fc" d="M 116.5,-0.5 C 123.833,-0.5 131.167,-0.5 138.5,-0.5C 205.831,10.1646 244.831,49.1646 255.5,116.5C 255.5,123.833 255.5,131.167 255.5,138.5C 244.831,205.835 205.831,244.835 138.5,255.5C 131.167,255.5 123.833,255.5 116.5,255.5C 49.1646,244.831 10.1646,205.831 -0.5,138.5C -0.5,131.167 -0.5,123.833 -0.5,116.5C 10.1646,49.1687 49.1646,10.1687 116.5,-0.5 Z M 117.5,4.5 C 162.858,2.9855 199.358,19.9855 227,55.5C 255.93,99.253 257.93,144.253 233,190.5C 205.801,231.852 167.301,251.685 117.5,250C 58.6704,241.837 21.8371,209.003 7,151.5C -0.867138,96.0864 18.2995,52.9197 64.5,22C 81.0685,12.4212 98.7352,6.58784 117.5,4.5 Z"/></g>
<g><path style="opacity:0.99" fill="#ecf2fb" d="M 116.5,19.5 C 162.708,17.1834 197.875,35.5167 222,74.5C 242.787,116.914 239.454,157.248 212,195.5C 175.845,234.802 132.679,244.968 82.5,226C 31.8783,198.58 12.045,156.413 23,99.5C 37.7746,53.5513 68.9413,26.8846 116.5,19.5 Z"/></g>
<g><path style="opacity:1" fill="#6391f9" d="M 137.5,33.5 C 139.666,36.6104 141.999,39.7771 144.5,43C 146.5,44 148.5,45 150.5,46C 145.359,48.6407 141.359,52.474 138.5,57.5C 135.556,52.0537 131.223,48.2204 125.5,46C 132.431,44.5704 136.431,40.4038 137.5,33.5 Z"/></g>
<g><path style="opacity:1" fill="#6591f8" d="M 175.5,95.5 C 172.15,95.335 168.817,95.5017 165.5,96C 166.88,102.571 166.546,109.071 164.5,115.5C 134.5,116.833 104.5,116.833 74.5,115.5C 78.5,115.5 82.5,115.5 86.5,115.5C 85.669,108.869 85.3357,102.202 85.5,95.5C 81.8333,95.5 78.1667,95.5 74.5,95.5C 78.2984,94.5166 82.2984,94.1832 86.5,94.5C 92.182,75.3244 105.015,64.6577 125,62.5C 145.586,63.5871 159.086,73.9204 165.5,93.5C 168.977,94.1672 172.311,94.8339 175.5,95.5 Z"/></g>
<g><path style="opacity:1" fill="#6592f9" d="M 76.5,62.5 C 79.3966,66.0634 82.7299,69.3967 86.5,72.5C 84.9716,73.8613 83.3049,75.028 81.5,76C 80.3601,77.9734 79.0267,79.8067 77.5,81.5C 74.7824,77.7806 71.449,74.7806 67.5,72.5C 71.9407,70.3961 74.9407,67.0627 76.5,62.5 Z"/></g>
<g><path style="opacity:1" fill="#6995f9" d="M 174.5,70.5 C 176.503,73.4045 179.169,75.7378 182.5,77.5C 179.833,79.5 177.5,81.8333 175.5,84.5C 173.444,81.4427 170.778,79.1093 167.5,77.5C 170.87,76.1302 173.203,73.7969 174.5,70.5 Z"/></g>
<g><path style="opacity:1" fill="#8ac8f9" d="M 131.5,115.5 C 132.881,111.951 134.881,108.784 137.5,106C 137.167,105.833 136.833,105.667 136.5,105.5C 133.415,108.756 129.915,111.423 126,113.5C 122.064,111.235 118.397,108.568 115,105.5C 116.51,108.841 118.343,112.174 120.5,115.5C 112.804,115.831 105.138,115.497 97.5,114.5C 92.198,96.5636 97.8647,83.3969 114.5,75C 140.995,69.8389 154.828,80.6722 156,107.5C 155.239,110.053 154.406,112.553 153.5,115C 146.174,115.5 138.841,115.666 131.5,115.5 Z"/></g>
<g><path style="opacity:1" fill="#fcfdfe" d="M 125.5,83.5 C 129.854,89.0236 133.854,94.857 137.5,101C 134.299,104.862 130.466,108.028 126,110.5C 121.704,107.708 117.538,104.708 113.5,101.5C 117.51,95.4714 121.51,89.4714 125.5,83.5 Z"/></g>
<g><path style="opacity:1" fill="#6857e5" d="M 74.5,95.5 C 78.1667,95.5 81.8333,95.5 85.5,95.5C 85.3357,102.202 85.669,108.869 86.5,115.5C 82.5,115.5 78.5,115.5 74.5,115.5C 71.6079,114.606 68.9413,113.272 66.5,111.5C 65.7347,108.904 65.4013,106.237 65.5,103.5C 67.2329,99.4351 70.2329,96.7684 74.5,95.5 Z"/></g>
<g><path style="opacity:1" fill="#6857e5" d="M 175.5,95.5 C 179.362,96.5237 182.195,98.8571 184,102.5C 184.499,107.489 184.666,112.489 184.5,117.5C 178.018,115.676 171.351,115.009 164.5,115.5C 166.546,109.071 166.88,102.571 165.5,96C 168.817,95.5017 172.15,95.335 175.5,95.5 Z"/></g>
<g><path style="opacity:1" fill="#f5fafe" d="M 131.5,115.5 C 127.833,115.5 124.167,115.5 120.5,115.5C 118.343,112.174 116.51,108.841 115,105.5C 118.397,108.568 122.064,111.235 126,113.5C 129.915,111.423 133.415,108.756 136.5,105.5C 136.833,105.667 137.167,105.833 137.5,106C 134.881,108.784 132.881,111.951 131.5,115.5 Z"/></g>
<g><path style="opacity:1" fill="#9f92fb" d="M 65.5,103.5 C 65.4013,106.237 65.7347,108.904 66.5,111.5C 65.5021,138.662 65.1688,165.995 65.5,193.5C 64.1667,163.5 64.1667,133.5 65.5,103.5 Z"/></g>
<g><path style="opacity:1" fill="#8c7bfc" d="M 66.5,111.5 C 68.9413,113.272 71.6079,114.606 74.5,115.5C 104.5,116.833 134.5,116.833 164.5,115.5C 171.351,115.009 178.018,115.676 184.5,117.5C 186.893,119.736 188.727,122.403 190,125.5C 190.5,132.158 190.666,138.825 190.5,145.5C 178.495,145.333 166.495,145.5 154.5,146C 152.667,146.5 151.5,147.667 151,149.5C 150.333,155.833 150.333,162.167 151,168.5C 151.465,169.931 152.299,171.097 153.5,172C 165.829,172.5 178.162,172.667 190.5,172.5C 190.896,180.253 190.396,187.92 189,195.5C 187.332,199.165 184.499,201.332 180.5,202C 144.833,202.667 109.167,202.667 73.5,202C 69.2518,200.587 66.5852,197.754 65.5,193.5C 65.1688,165.995 65.5021,138.662 66.5,111.5 Z"/></g>
<g><path style="opacity:1" fill="#8ac7f8" d="M 190.5,145.5 C 190.5,154.5 190.5,163.5 190.5,172.5C 178.162,172.667 165.829,172.5 153.5,172C 152.299,171.097 151.465,169.931 151,168.5C 150.333,162.167 150.333,155.833 151,149.5C 151.5,147.667 152.667,146.5 154.5,146C 166.495,145.5 178.495,145.333 190.5,145.5 Z"/></g>
<g><path style="opacity:1" fill="#f9e181" d="M 159.5,153.5 C 165.33,153.161 167.83,155.827 167,161.5C 163.952,165.01 160.619,165.343 157,162.5C 155.93,158.858 156.764,155.858 159.5,153.5 Z"/></g>
</svg>
